<svg id="visual" viewBox="0 0 900 600" width="900" height="600" xmlns="http://www.w3.org/2000/svg" xmlns:xlink="http://www.w3.org/1999/xlink" version="1.1"><rect x="0" y="0" width="900" height="600" fill="#c1daed"></rect><g fill="#2f2c5c"><circle r="66" cx="328" cy="389"></circle><circle r="25" cx="661" cy="408"></circle><circle r="47" cx="166" cy="576"></circle><circle r="60" cx="157" cy="179"></circle><circle r="26" cx="879" cy="166"></circle><circle r="26" cx="381" cy="147"></circle><circle r="30" cx="519" cy="255"></circle><circle r="41" cx="808" cy="19"></circle><circle r="25" cx="39" cy="319"></circle><circle r="55" cx="691" cy="156"></circle><circle r="43" cx="191" cy="29"></circle><circle r="43" cx="426" cy="578"></circle><circle r="39" cx="515" cy="388"></circle><circle r="51" cx="843" cy="347"></circle><circle r="48" cx="521" cy="29"></circle><circle r="33" cx="807" cy="577"></circle><circle r="28" cx="41" cy="85"></circle><circle r="24" cx="637" cy="591"></circle><circle r="38" cx="169" cy="409"></circle><circle r="50" cx="19" cy="509"></circle><circle r="61" cx="329" cy="3"></circle></g></svg>