<svg id="visual" viewBox="0 0 900 600" width="900" height="600" xmlns="http://www.w3.org/2000/svg" xmlns:xlink="http://www.w3.org/1999/xlink" version="1.1"><rect x="0" y="0" width="900" height="600" fill="#FFFFFF"></rect><path d="M0 457L21.5 450.8C43 444.7 86 432.3 128.8 435.3C171.7 438.3 214.3 456.7 257.2 464.7C300 472.7 343 470.3 385.8 463.7C428.7 457 471.3 446 514.2 439.5C557 433 600 431 642.8 437C685.7 443 728.3 457 771.2 461.3C814 465.7 857 460.3 878.5 457.7L900 455L900 601L878.5 601C857 601 814 601 771.2 601C728.3 601 685.7 601 642.8 601C600 601 557 601 514.2 601C471.3 601 428.7 601 385.8 601C343 601 300 601 257.2 601C214.3 601 171.7 601 128.8 601C86 601 43 601 21.5 601L0 601Z" fill="#0066ff"></path><path d="M0 503L21.5 491.8C43 480.7 86 458.3 128.8 453.2C171.7 448 214.3 460 257.2 466.5C300 473 343 474 385.8 473.3C428.7 472.7 471.3 470.3 514.2 472.7C557 475 600 482 642.8 476.7C685.7 471.3 728.3 453.7 771.2 451.2C814 448.7 857 461.3 878.5 467.7L900 474L900 601L878.5 601C857 601 814 601 771.2 601C728.3 601 685.7 601 642.8 601C600 601 557 601 514.2 601C471.3 601 428.7 601 385.8 601C343 601 300 601 257.2 601C214.3 601 171.7 601 128.8 601C86 601 43 601 21.5 601L0 601Z" fill="#1e55d3"></path><path d="M0 494L21.5 493.2C43 492.3 86 490.7 128.8 492.3C171.7 494 214.3 499 257.2 504.5C300 510 343 516 385.8 511.3C428.7 506.7 471.3 491.3 514.2 483.5C557 475.7 600 475.3 642.8 475C685.7 474.7 728.3 474.3 771.2 479C814 483.7 857 493.3 878.5 498.2L900 503L900 601L878.5 601C857 601 814 601 771.2 601C728.3 601 685.7 601 642.8 601C600 601 557 601 514.2 601C471.3 601 428.7 601 385.8 601C343 601 300 601 257.2 601C214.3 601 171.7 601 128.8 601C86 601 43 601 21.5 601L0 601Z" fill="#2444a8"></path><path d="M0 553L21.5 551.7C43 550.3 86 547.7 128.8 547.2C171.7 546.7 214.3 548.3 257.2 548.7C300 549 343 548 385.8 543.5C428.7 539 471.3 531 514.2 529.8C557 528.7 600 534.3 642.8 537.8C685.7 541.3 728.3 542.7 771.2 538C814 533.3 857 522.7 878.5 517.3L900 512L900 601L878.5 601C857 601 814 601 771.2 601C728.3 601 685.7 601 642.8 601C600 601 557 601 514.2 601C471.3 601 428.7 601 385.8 601C343 601 300 601 257.2 601C214.3 601 171.7 601 128.8 601C86 601 43 601 21.5 601L0 601Z" fill="#23347f"></path><path d="M0 579L21.5 572.5C43 566 86 553 128.8 547C171.7 541 214.3 542 257.2 545.5C300 549 343 555 385.8 560.3C428.7 565.7 471.3 570.3 514.2 569.3C557 568.3 600 561.7 642.8 560.3C685.7 559 728.3 563 771.2 566.3C814 569.7 857 572.3 878.5 573.7L900 575L900 601L878.5 601C857 601 814 601 771.2 601C728.3 601 685.7 601 642.8 601C600 601 557 601 514.2 601C471.3 601 428.7 601 385.8 601C343 601 300 601 257.2 601C214.3 601 171.7 601 128.8 601C86 601 43 601 21.5 601L0 601Z" fill="#1e2559"></path></svg>